<?xml version="1.0" encoding="UTF-8" standalone="no"?>
<!-- Created with Inkscape (http://www.inkscape.org/) -->

<svg
   width="210mm"
   height="297mm"
   viewBox="0 0 210 297"
   version="1.1"
   id="svg5"
   inkscape:version="1.1.1 (c3084ef, 2021-09-22)"
   sodipodi:docname="mouse.svg"
   xmlns:inkscape="http://www.inkscape.org/namespaces/inkscape"
   xmlns:sodipodi="http://sodipodi.sourceforge.net/DTD/sodipodi-0.dtd"
   xmlns="http://www.w3.org/2000/svg"
   xmlns:svg="http://www.w3.org/2000/svg">
  <sodipodi:namedview
     id="namedview7"
     pagecolor="#ffffff"
     bordercolor="#666666"
     borderopacity="1.0"
     inkscape:pageshadow="2"
     inkscape:pageopacity="0.0"
     inkscape:pagecheckerboard="0"
     inkscape:document-units="mm"
     showgrid="false"
     inkscape:zoom="0.71648919"
     inkscape:cx="685.28598"
     inkscape:cy="170.97257"
     inkscape:window-width="1833"
     inkscape:window-height="1081"
     inkscape:window-x="448"
     inkscape:window-y="268"
     inkscape:window-maximized="0"
     inkscape:current-layer="layer1" />
  <defs
     id="defs2" />
  <g
     inkscape:label="Layer 1"
     inkscape:groupmode="layer"
     id="layer1">
    <ellipse
       style="fill:none;fill-rule:evenodd;stroke-width:0.53421"
       id="path79"
       cx="-156.82237"
       cy="109.77895"
       transform="scale(-1,1)"
       rx="97.636795"
       ry="78.285698" />
    <g
       aria-label="Mouse"
       transform="translate(19.731959,-55.793814)"
       id="text1507"
       style="font-size:19.7556px;line-height:1.25;-inkscape-font-specification:'sans-serif, Normal';fill:none;stroke:#000000;stroke-width:0.265">
      <path
         d="m 60.561836,124.4212 -0.249017,-1.89366 12.270522,-1.61358 -8.869983,-2.86153 -0.148404,-1.12855 7.832412,-5.02871 -12.270523,1.61358 -0.232668,-1.76933 14.240693,-1.87266 0.339569,2.58227 -7.429207,4.83948 8.411441,2.62994 0.345857,2.63009 z"
         style="font-size:19.7556px"
         id="path14191" />
      <path
         d="m 69.931762,134.78186 q -2.471777,0.90845 -4.3682,0.16664 -1.896422,-0.74181 -2.678418,-2.86954 -0.788652,-2.14582 0.176031,-3.93917 0.96801,-1.78429 3.439787,-2.69274 2.471778,-0.90844 4.364872,-0.17569 1.905477,0.73848 2.694129,2.88431 0.781996,2.12772 -0.191741,3.9244 -0.964682,1.79334 -3.43646,2.70179 z m -0.645562,-1.7565 q 1.964746,-0.7221 2.63258,-1.8411 0.676888,-1.12233 0.174414,-2.48951 -0.50913,-1.38528 -1.751717,-1.80215 -1.230206,-0.41115 -3.194952,0.31095 -1.901367,0.69881 -2.605418,1.83112 -0.694996,1.12899 -0.189194,2.50522 0.499146,1.35812 1.750788,1.77166 1.264023,0.41927 3.183499,-0.28619 z"
         style="font-size:19.7556px"
         id="path14193" />
      <path
         d="m 70.661139,146.88652 -0.915824,-1.56526 1.032406,-0.60406 q -1.087223,-0.4256 -1.844069,-0.95509 -0.756847,-0.5295 -1.268344,-1.40371 -0.857367,-1.46535 -0.443898,-2.80253 0.421795,-1.34204 2.153573,-2.35529 l 6.036246,-3.53177 0.915824,1.56526 -5.295245,3.09821 q -0.707698,0.41407 -1.176604,0.77783 -0.46058,0.3589 -0.691935,0.78484 -0.23481,0.43914 -0.191857,0.89458 0.04295,0.45544 0.442409,1.13816 0.355612,0.60779 1.090936,1.1387 0.740194,0.53923 1.596775,0.87626 l 6.943765,-4.06275 0.915824,1.56526 z"
         style="font-size:19.7556px"
         id="path14195" />
      <path
         d="m 80.041132,153.79969 q -1.146877,0.92892 -2.652542,0.57193 -1.499594,-0.3495 -2.829224,-1.9911 -0.75285,-0.9295 -1.16689,-1.88515 -0.400473,-0.95422 -0.563112,-1.69143 l 1.581641,-1.28106 0.06071,0.075 q 0.03813,1.07392 0.400067,2.13383 0.369438,1.05384 0.976575,1.80343 0.75285,0.9295 1.477683,1.21136 0.724833,0.28186 1.369482,-0.24028 0.494732,-0.40071 0.518881,-0.89198 0.02415,-0.49127 -0.451656,-1.44655 -0.175391,-0.35448 -0.480079,-0.91457 -0.298616,-0.55259 -0.515456,-1.03488 -0.60015,-1.33868 -0.41438,-2.25878 0.199337,-0.91868 1.023889,-1.58653 0.517219,-0.41892 1.144469,-0.57939 0.633322,-0.15297 1.345266,-0.01 0.692305,0.13441 1.416833,0.61514 0.738095,0.48214 1.387731,1.28421 0.607137,0.74959 1.039019,1.66596 0.445449,0.91779 0.595944,1.64002 l -1.506682,1.22034 -0.06071,-0.075 q -0.03986,-0.86149 -0.395352,-1.85214 -0.348002,-0.99672 -0.949067,-1.73882 -0.625351,-0.77208 -1.356256,-1.06143 -0.723408,-0.29543 -1.308091,0.17814 -0.517219,0.41892 -0.518508,0.95374 -0.0074,0.52733 0.398439,1.36552 0.22576,0.46264 0.524376,1.01524 0.304688,0.56009 0.490798,0.94313 0.570471,1.16411 0.454336,2.13953 -0.123632,0.98149 -1.038135,1.7222 z"
         style="font-size:19.7556px"
         id="path14197" />
      <path
         d="m 89.556446,160.06084 -5.773241,-5.44936 q -0.681997,0.72253 -0.974379,1.46794 -0.28576,0.73839 -0.231402,1.43967 0.04695,0.68103 0.386094,1.3195 0.346159,0.64509 0.949438,1.21452 0.799696,0.75484 1.904367,1.20062 1.118306,0.44539 1.753374,0.46118 l 0.07015,0.0662 -1.357372,1.43805 q -0.931267,-0.34843 -1.804515,-0.81454 -0.873249,-0.46611 -1.63787,-1.18783 -1.950135,-1.84073 -2.051256,-3.92589 -0.0945,-2.09218 1.739609,-4.0353 1.814244,-1.92207 3.925495,-2.06489 2.118265,-0.13619 3.829895,1.47941 1.585361,1.49642 1.56716,3.23019 -0.01119,1.74038 -1.620169,3.445 z m -0.33025,-2.22185 q 0.972942,-1.04482 0.990169,-2.103 0.02424,-1.05157 -1.027989,-2.04477 -1.059246,-0.99982 -2.279884,-0.97141 -1.213622,0.035 -2.171816,0.88153 z"
         style="font-size:19.7556px"
         id="path14199" />
    </g>
  </g>
</svg>
